<svg xmlns="http://www.w3.org/2000/svg" viewBox="0 0 151.25 151.25"><defs><style>.cls-1{fill:#00a0ff;}</style></defs><g id="Layer_2" data-name="Layer 2"><g id="Page_1" data-name="Page 1"><path class="cls-1" d="M122.84,16.56,92.45,55.72,75.63,77.4,72.9,74,61.15,59.19A10.1,10.1,0,0,0,44.79,60L10,113.32a75.63,75.63,0,0,1,112.8-96.76Z"/><path class="cls-1" d="M151.25,75.63A75.65,75.65,0,0,1,23.17,130.14l16.24-24.91L54.07,82.71l4,5.06L67.82,100a10.05,10.05,0,0,0,7.89,3.81h.06a10.06,10.06,0,0,0,7.9-3.89l53.25-68.59A75.28,75.28,0,0,1,151.25,75.63Z"/></g></g></svg>