<svg xmlns="http://www.w3.org/2000/svg" viewBox="0 0 296.45 271.47"><g id="Layer_2" data-name="Layer 2"><g id="Layer_1-2" data-name="Layer 1"><path d="M43.82,271.47c-4.32,0-9.58-.14-16-.46l-.26,0c-12.76-1.6-12.23-10.69-12.06-13.68a2.66,2.66,0,0,0,0-.3H14.27c-4.71.63-8.38-.17-10.91-2.38A10.69,10.69,0,0,1,0,246.18a11.7,11.7,0,0,1,1.5-6A6.62,6.62,0,0,1,7.05,237l17.16-.35C23,230,21.09,216.81,19.55,202.9h0v0c-1.28-12.89-3.23-35.6-2-42.93,3.53-20.59,18.42-24.78,22.9-25.58a11.79,11.79,0,0,0,2.59-.77c4.66-1.94,16.87-4.86,46.23-2.55,7.6.6,15.15-4.68,18-7a30.07,30.07,0,0,1,4.94-3.18,114.25,114.25,0,0,1,29.63-10.59,58,58,0,0,1-5.37-19.36c-1-11.69-1.93-16.68-1.94-16.72a45.29,45.29,0,0,0-2.49-7.33c-2.66-6.74-6-15.13-4.08-22.41.4-1.54,2.77-3.57,4.73-5v-11H128v2.15c0,1.21,0,2.42,0,3.6a3.5,3.5,0,0,1-1.49,2.87,21,21,0,0,1,0,9.28,3.5,3.5,0,0,1-6.81-1.62c1.73-7.24-4.21-15.86-4.27-15.94l-.11-.16c-6.64-10.64-21.82-20.8-42.74-14.4-12.95,4-27.82,15.73-27.1,35.85v.25c-.72,20.14,14.16,31.9,27.13,35.85,21,6.38,36.14-3.81,42.77-14.48l.22-.32c.18-.23,4.74-6.38,2.15-15.7a3.5,3.5,0,1,1,6.74-1.88,25.7,25.7,0,0,1-3.25,21.72c-11.91,19-34,22.43-50.67,17.36C50.46,86.8,37.88,70.05,38.53,50.26,37.88,30.49,50.45,13.76,70.58,7.6,87.11,2.54,109,5.84,121,24.52l0-3h18.76V36.8h0a7,7,0,0,1,2.42.42c6.35,2.26,8.87,13.39,6.49,21a4.17,4.17,0,0,1-1.23,1.92c.12.26.24.5.36.74a15.92,15.92,0,0,1,1,2.18c3.66,9.71,9.59,25.32,10.74,28,2,2.53,4.41,9,4.25,16.93,2.4,0,4.82,0,7.25.11a20.76,20.76,0,0,1,17.51,9.32,3.5,3.5,0,1,1-5.86,3.82A13.71,13.71,0,0,0,171.21,115h-.34a107.8,107.8,0,0,0-55.37,12.07,24.16,24.16,0,0,0-3.81,2.45c-3.54,2.81-12.86,9.27-22.94,8.47-29.75-2.35-40.42,1-43,2a18.75,18.75,0,0,1-4.07,1.2c-4.28.77-14.54,4.23-17.22,19.87-.81,4.69-.05,20,2,41.05,2,17.76,4.56,34,5.26,36.57a3.84,3.84,0,0,1-.54,3.17,3.88,3.88,0,0,1-2.78,1.65l-.29,0L7.38,244A6,6,0,0,0,7,246.24a4.19,4.19,0,0,0,1,3.12c.94.82,2.92,1.07,5.56.69l.5,0H25.84a87,87,0,0,1,14.29-1.81c-.21-2-.47-4.46-.77-7.4-.87-8.4-2.16-20.88-3.58-33a3.72,3.72,0,0,1-.23-.87l-.64-5.28c-1.25-10.32-2.34-19.29-2.84-21.61-.9-2.28-5.07-13.81-1.21-22A12.91,12.91,0,0,1,39,151.17a30.76,30.76,0,0,0,8-4.24c8-5.25,17.9-11.78,48.79-4.83a3.5,3.5,0,0,1-1.54,6.83c-28-6.3-35.82-1.14-43.4,3.85a37.84,37.84,0,0,1-9.8,5.08,5.85,5.85,0,0,0-3.87,3.22c-2.33,4.92.35,13.85,1.47,16.59l.16.49c.55,2.24,1.42,9.31,3,22.66l.41,3.38a3,3,0,0,1,.23.9c1.52,12.74,2.91,26.12,3.82,35,.54,5.24,1,9.37,1.18,11l.49,3.8-3.83.14a114.21,114.21,0,0,0-14.83,1.5,3.43,3.43,0,0,1-1.8.5h-.72a15.54,15.54,0,0,0-4.32,1.44c-.11,3,.44,4.87,5.85,5.57,12.74.64,28,.54,31.13-.71h0l.36-.26s1.62-1.42.9-9.84a161.43,161.43,0,0,0-2.9-17.53c-1.09-5.36-1.46-7.29-1.27-8.66l0-.12c1.23-8.61,1.92-15.23,2.14-19.25a3.47,3.47,0,0,1-.18-1.44c.07-.77.14-1.52.21-2.26q0-.24-.06-.39a3.41,3.41,0,0,1,.43-3.07c1.21-10.22,3-16.7,5.29-19.3a3.51,3.51,0,0,1,4.23-.79l-1.5-4.62h147.4a3.5,3.5,0,0,1,6.25-2.41c1.81,2.32,8.78,2.35,16.16,2.37,1.53,0,3.14,0,4.81,0h11a12,12,0,0,0,6.08-3.56,7.65,7.65,0,0,0,2-6.55c-2.17-11.7-7-18.32-14.44-19.67-10.85-2-23.18,7.21-24.33,9.12-2.08,4.16-6.8,3.34-9.93,2.81-.56-.1-1.14-.2-1.72-.28a4.31,4.31,0,0,1-3.7-4.25V140l.14-.48c2.07-7-4.07-22.7-8.46-31-2.65-4.29-4.66-13.46-6.91-31.52-.32-2.56-.63-5.13-.94-7.63-1-8.59-2.3-19.12-3.33-22.26a12.45,12.45,0,0,1-2-1.38c-1.88-1.52-2.19-1.48-2.79-1.16A2.63,2.63,0,0,0,181.26,47l.27,7.42a4.61,4.61,0,0,1,0,.53,1.25,1.25,0,0,0,.78.5c5.47,1.88,4.39,6.62,2.68,11.73a6,6,0,0,0-.27,1.19c-.68,6.22.4,13.81,1.44,21.14.41,2.87.83,5.84,1.15,8.73l0,.26.21,6.22a3.5,3.5,0,0,1-3.37,3.62,3.46,3.46,0,0,1-3.62-3.37l-.22-6.09c-.3-2.75-.71-5.61-1.1-8.38-1.1-7.76-2.24-15.79-1.47-22.88a12.63,12.63,0,0,1,.59-2.66,29.72,29.72,0,0,0,.91-3.18c-2.11-.89-4.21-2.57-5-7a3.49,3.49,0,0,1,.25-2.08l-.2-5.45a9.66,9.66,0,0,1,5-8.85c4.91-2.65,8.83.52,10.51,1.88.21.17.48.39.66.52a3.82,3.82,0,0,1,2,1.2c2.88-14.73,12.62-27.76,27-35.43C237.29-3,258-2,273.43,9c.37.25.75.51,1.12.78h0a52.59,52.59,0,0,1,12.26,12.29c12.14,16.08,12.84,41,1.95,58V256.51H270V194.26H73.12l-3-9.17a3.63,3.63,0,0,1-.5.75c-.83.93-2.64,6-3.89,18.39.11,3.09-.23,9.52-2.24,23.63,0,.86.64,3.81,1.17,6.42,3.24,15.85,5.44,29.38-.41,34.17C63.2,269.56,60,271.47,43.82,271.47Zm233.2-22h4.74V89A51.11,51.11,0,0,1,277,93.35Zm-252-9h0Zm53.2-53.29H269.72v-4.48H253.53a18.11,18.11,0,0,1-4.53.27c-2.48-.16-4.89-.24-7.24-.27h-165ZM265,175.78h5V98.28c-14.77,8.74-33.43,9-50,.52A53.77,53.77,0,0,1,199,79.66c1,7.93,3,21.24,5.5,25.19l.14.23c1.28,2.43,12.28,23.75,9.19,35.89v10.12a19.94,19.94,0,0,0,2.43.31c3.22-5,17.9-14.22,30.6-12.43,7.62,1.08,17.44,6.36,21,25.43A14.34,14.34,0,0,1,265,175.78ZM134.64,47c-.88,5,1.8,11.81,4,17.33a47.63,47.63,0,0,1,2.86,8.62c0,.12,1,5.24,2,17.42A51.87,51.87,0,0,0,149.11,109c2.54-.35,5.1-.63,7.68-.82.21-6.6-1.84-11.69-2.59-12.75-.81-.75-1.63-2.59-12-30.07l-.06-.17c-.1-.23-.39-.83-.61-1.27s-.44-.86-.66-1.32a6.35,6.35,0,0,1,1.29-7.19c1.31-5.17-.92-11.12-2.34-11.63C138.91,43.59,136.09,45.53,134.64,47ZM245,7a47.52,47.52,0,0,0-22.3,5.7C207.29,20.92,198,36.13,198.53,52.4v.22c-.52,16.52,8.95,31.83,24.71,39.95s34,7.06,47.16-3l.07,0h0a46,46,0,0,0,11.08-11.31l0,0,0-.07c10.49-14.39,10.29-37.64-.45-51.84l0,0-.05-.08a45.8,45.8,0,0,0-10.66-10.68h0l-1-.68-.08,0h0A41.59,41.59,0,0,0,245,7ZM142.15,65.13v0Zm38.21-3h0Zm9.48-21.48h0Z"/><path d="M269.62,58.3h-27l-1-1.89c-3.31-6.41-3.28-9.65.14-15.12l1-1.64h26.7l.94.72c3.72,2.85,4.56,6,4.61,8.11a11.83,11.83,0,0,1-4.47,9ZM247,51.3H266.9a4.3,4.3,0,0,0,1.17-2.65,3,3,0,0,0-1-2H246.76C246,48.13,246,49.15,247,51.3Z"/><rect x="191.03" y="51.01" width="4.5" height="7"/><rect x="145.53" y="51.01" width="32" height="7"/><path d="M82.25,58.31l-1-1.19A10.12,10.12,0,0,1,81,43.87l1.16-1.39L132.5,42l.06,7-46.77.44a3.12,3.12,0,0,0,0,1.84L134.51,51l0,7Z"/><rect x="143.53" y="42.01" width="34" height="7"/><rect x="189.53" y="42.01" width="6" height="7"/><path d="M105.77,183.49c-4.3,0-9.12-.22-14.53-.73l.65-7c33.33,3.11,39.83-4.85,41-7.36a26.86,26.86,0,0,1,7-8.91c6.84-5.83,17.43-12.23,29-9.65,10,2.25,18.47,10.84,25.14,25.56a.31.31,0,0,0,.05.1l10.14.49-.34,7-12.49-.6-1.35-1a8.18,8.18,0,0,1-2.39-3c-5.71-12.61-12.53-19.88-20.29-21.61-8.72-2-17.28,3.34-22.91,8.14a20,20,0,0,0-5.19,6.59C136.48,177.23,128.28,183.49,105.77,183.49Z"/><path d="M211.15,180.6l-5.8-3.91,3.44-5.12,1.13-.38c.76-.25,4.84-1.32,10.91,2.32l-3.6,6a10.84,10.84,0,0,0-4.26-1.62Z"/><rect x="203.98" y="175.58" width="4.31" height="7" transform="translate(-31.96 45.4) rotate(-11.67)"/><path d="M67.94,188.45l-5.82-3.88a6.26,6.26,0,0,0,1.14-3.27,6.53,6.53,0,0,1,4.41-6l2.62,6.21,0,0a.43.43,0,0,0,0,0l.09.23-.13.06c0,.1,0,.22,0,.32A13.27,13.27,0,0,1,67.94,188.45Z"/><polygon points="141.76 231.51 123.01 231.51 123.01 190.76 130.01 190.76 130.01 224.51 134.76 224.51 134.76 190.76 141.76 190.76 141.76 231.51"/><polygon points="121.53 119.05 121.11 79.02 121.11 54.8 128.11 54.8 128.11 78.98 128.53 118.98 121.53 119.05"/><rect x="131.53" y="65.01" width="7" height="51"/><rect x="121.06" y="24.07" width="7" height="21.58" transform="translate(-0.15 0.56) rotate(-0.26)"/><path d="M190.28,135.75a3.49,3.49,0,0,1-2.58-1.13c-1.11-1.21-6.67-8.47-7.33-33a3.5,3.5,0,1,1,7-.19c.26,9.63,2.13,24.83,5.49,28.47a3.5,3.5,0,0,1-2.58,5.87Z"/></g></g></svg>