<svg xmlns="http://www.w3.org/2000/svg" viewBox="0 0 419.68 483.61"><defs><style>.cls-1{fill:none;stroke:#000;stroke-linecap:round;stroke-linejoin:round;stroke-width:9px;}</style></defs><g id="Layer_2" data-name="Layer 2"><g id="Layer_1-2" data-name="Layer 1"><path class="cls-1" d="M268.42,135.26c3.14,1.61,5.83,4.2,9.49,4.7,18.18,5.3,30,17.48,37.19,34.56,19.88,43.39-27.71,79.95-67.36,83.35-14.78,1.27-29.72,1.18-44.57,1.52-1.48,0-1.87.58-2,2.06-.58,4.92,1,8.51,4.62,12.12,9.62,9.38,13.41,22.16,15.39,35.16l.54.34c71.25-74.19,189.15-5.51,166.43,93.43,10.78,4.78,28.87,5.68,26.94,21.78a13.6,13.6,0,0,1-12.56,12c-8.43-.56-15.58-6.57-23.58-9-32.46,65.86-131,69.92-168.56,6.81-1.59-1.46-1.93-5.91-4.62-5.12a76.3,76.3,0,0,1-39.2,3.07c-11.06-2.6-6.75-12.17-.4-17.6,7.13-6.35,14.53-12.39,21.8-18.57,2.45-2.42,6.4-4.38,6.83-8.1-.44-7,2.81-25.18-2.72-29.35-8.23-2.66-7.56-2.81-7.63-11.15a2.44,2.44,0,0,0-1-1.79c-6.13-2.57-12-5.73-18.27-7.8,1.25,3.59,2.42,6.93,3.59,10.27l-.35.17c-2-3.4-2.06-8.24-4.83-11.08-9.57-4.28-19.16-8.5-29.21-12.94,3.34,7.79,6.4,15.41,7.32,23.89.34,1.73-.32,3.61,1.41,4.8.8.62,1,2,1.52,3,.22.45,8.07,4.25,11.35,6.4,5.68,4.35,19.62,2.77,18.33-6.25-.2-1.9,1.47-2.52,2.73-1.28,5.57,6.36,3.61,15.55,5.17,23.28.73,5.07-.17,6.91-5.22,7.73a84.33,84.33,0,0,1-16.36,1.43c-21.4-1.28-41.75,8.33-63.15,4.7-11.59-.73-7.29-14.16.86-16.32,11.54-4,23-8.47,32.19-16.7,1.3-1,8.06-8.48,8.91-7.86.5.38,1,.74,1.52,1.11l.51-.22c-.6-9.56-3.61-18.67-7.68-27.28-2.32-2.92-7-3.47-10.09-5.28-26,55.18-108.93,43.54-118-16.62-9.35-47.33,36.82-88.49,82.68-71.85M133.29,83.06c3,1.22,6.52,1.29,9.68,2.28,9.22,2.89,17.35,7.9,25,13.63,4.19,3.12,8.21,6.45,12.38,9.59a11,11,0,0,0,2.94,1.1c1.62.57,3.29,1,4.84,1.71,4,1.82,8,3.6,12.45,4,2.65.27,5,.9,6.75,3.06m-57.91,75.79c2.73,4.25,5.59,8.43,8,12.88,3.45,6.49,4.22,13.74,5.09,20.91a180.46,180.46,0,0,0,7.27,34.46c4,12.4,7.63,24.94,11.53,37.39a93.72,93.72,0,0,1,4,38.12c-.52,4.94-.19,10-.09,15a3.16,3.16,0,0,0,1.25,2.45c3.06,1.38,6.24,2.49,9.54,3.75.23-.91.38-1.43.5-1.95a110.76,110.76,0,0,1,10-27.27,5.75,5.75,0,0,0-2.38-7.51,2,2,0,0,1-1.24-1.9c-.4-5.59-1-11.17-1.24-16.76-.44-10.2-.7-20.4-1-30.61-.28-9.81-.37-19.64-.79-29.44a70.73,70.73,0,0,0-3.27-19.15c-1.56-4.73-3.81-9.23-5.35-14-1.88-5.74-3.55-11.56-4.91-17.44a237.72,237.72,0,0,0-9.94-33.47c-4-10.13-8.08-20.21-10.69-30.81-.13-.54-.23-1.08-.34-1.62l.31-.06M200.47,258.8c5.37-.08,13.53,0,18.9,0v-.13c6.65-.17,13.32-.21,20-.56a98.48,98.48,0,0,0,25.81-4.53,108.32,108.32,0,0,0,23.15-10.84c8.33-5.15,16-10.93,21.52-19.23,4.38-6.61,6.94-13.74,6.64-21.74-.26-6.71-2.81-12.25-9-15.4a70.43,70.43,0,0,0-11.8-4.86C286,178.64,276,178.15,266,178.31a100.58,100.58,0,0,0-25.14,3.57,291.59,291.59,0,0,0-52,20m-28.28,17.37c-2.16,1.74-4.09,3-5.73,4.66-3.62,3.56-6.67,7.64-7.11,12.83a34.23,34.23,0,0,0,.78,10c2.06,9.37,4.13,18.75,9,27.22,2.87,5,5.59,10.1,8.32,15.18,6.82,12.72,13.48,25.51,18.42,39.11a9.54,9.54,0,0,0,.78,1.26,49.19,49.19,0,0,0-.58-14c-3-14.59-7.56-28.74-11.94-42.95-2.5-8.1-5.29-16.15-7.17-24.4s-2.73-16.62-4-25C161.08,222,160.85,220.87,160.55,219.24ZM138,251.59c.52.48.78.76,1.08,1a45,45,0,0,1,16.23,23.58c2.39,7.92,2.61,16.17,3.47,24.32.74,7,1.55,14,2.27,21a2.45,2.45,0,0,0,1.84,2.24c6.77,2.63,13.52,5.33,20.28,8,.52.2,1.07.32,1.9.56-.24-.84-.33-1.32-.51-1.77-1.22-3.16-2.41-6.33-3.7-9.45-6.25-15.1-14.22-29.34-22-43.64-3.1-5.66-6.07-11.35-7.64-17.66-.75-3-1.51-6-2.35-9-.14-.53-.73-1.34-1.1-1.32A23.34,23.34,0,0,0,138,251.59Zm-22.66-64V208.8L148,193.28c-.22-1.41-1.37-1.13-2.32-1.15C135.55,192,125.43,191.91,115.34,187.56Zm85.34,8.34c-4.82-1.9-8.56-5.29-14.09-5.08M378.9,427.25,296.57,392s-5.17-6.73,1.77-15.21a15.05,15.05,0,0,1,9.72-5.34l80,31.08M90,224.42a135.49,135.49,0,0,0,1,15.34C93,252.32,95.15,264.84,97,277.4a82.11,82.11,0,0,1,.92,20.24c-.35,3.31-.44,6.64-.74,10a8.21,8.21,0,0,0,2.16,5.95,7.39,7.39,0,0,0,4.88,2.43m5.64-38.06c-3.82-8.56-7.94-17-11.65-25.59-2.61-6-4.31-12.37-3.83-19.09M104.21,316s3.09,3.43,15.11,2.5c5.64-.43,4.26-11.15,4.26-11.15s-3-8.81-6.31-14.11l-1.93-3.17-4.53-10m0,0-2.56-5.65m15.33,32.94,39.31,16.37m5.88,24.22,8.27,6.69m28.68,74.33s-11.34-20.58-11-41.2m12.61-269.27,61.06,16.79M133.29,83.06c-3.41-1.37-6.95-1.22-10.4-1.85a15.34,15.34,0,0,0-3.3.16,21.47,21.47,0,0,1-3.1.11c-5-.45-8.87-3.24-12.33-6.65l-1.58-2.39S102.26,25.64,77.19,10s-54.85,7.31-54.85,7.31C-11.61,33,32.79,81,32.79,81,49,120.18,65.08,111,65.08,111l18.51-7.56s-1.19,9.12-6.4,15c-4.41,5-7.91,15.81-6.87,27.31s10,28.72,10,28.72S89,209.08,90,224.42M207,327s8.16-14.49,14.63-17.95m-102.35,9.41,4.38.72m-26.26-9-26-11.62s-3.9-8.46,5.77-9.72l20.72,8.8m-3.54-64.4s.15-14.55,21-24.44"/></g></g></svg>
