<?xml version="1.0" encoding="utf-8"?>
<!-- Generator: Adobe Illustrator 26.0.3, SVG Export Plug-In . SVG Version: 6.00 Build 0)  -->
<svg version="1.1" id="Layer_1" xmlns="http://www.w3.org/2000/svg" xmlns:xlink="http://www.w3.org/1999/xlink" x="0px" y="0px"
	 viewBox="0 0 296.5 271.5" style="enable-background:new 0 0 296.5 271.5;" xml:space="preserve">
<style type="text/css">
	.st0{fill:#FFFFFF;}
</style>
<g id="Layer_2_00000124120551173707937360000005327554529349556901_">
	<g id="Layer_1-2">
		<path class="st0" d="M43.8,271.5c-4.3,0-9.6-0.1-16-0.5h-0.3c-12.8-1.6-12.2-10.7-12.1-13.7c0-0.1,0-0.2,0-0.3h-1.2
			c-4.7,0.6-8.4-0.2-10.9-2.4c-2.3-2.2-3.6-5.3-3.4-8.5c0-2.1,0.5-4.2,1.5-6c1.2-1.9,3.3-3.1,5.6-3.2l17.2-0.4
			c-1.2-6.6-3.1-19.8-4.7-33.8l0,0l0,0c-1.3-12.9-3.2-35.6-2-42.9c3.5-20.6,18.4-24.8,22.9-25.6c0.9-0.2,1.8-0.4,2.6-0.8
			c4.7-1.9,16.9-4.9,46.2-2.6c7.6,0.6,15.2-4.7,18-7c1.5-1.2,3.2-2.3,4.9-3.2c9.3-4.9,19.3-8.4,29.6-10.6
			c-2.9-6.1-4.7-12.6-5.4-19.4c-1-11.7-1.9-16.7-1.9-16.7c-0.6-2.5-1.5-5-2.5-7.3c-2.7-6.7-6-15.1-4.1-22.4c0.4-1.5,2.8-3.6,4.7-5
			v-11H128v2.1c0,1.2,0,2.4,0,3.6c0,1.1-0.6,2.2-1.5,2.9c0.7,3.1,0.7,6.2,0,9.3c-0.4,1.9-2.3,3-4.2,2.6c-1.9-0.4-3-2.3-2.6-4.2
			c1.7-7.2-4.2-15.9-4.3-15.9l-0.1-0.2C108.7,18,93.5,7.9,72.6,14.3c-13,4-27.8,15.7-27.1,35.8v0.2c-0.7,20.1,14.2,31.9,27.1,35.8
			c21,6.4,36.1-3.8,42.8-14.5l0.2-0.3c0.2-0.2,4.7-6.4,2.2-15.7c-0.6-1.8,0.5-3.8,2.3-4.4c1.8-0.6,3.8,0.5,4.4,2.3
			c0,0.1,0,0.1,0.1,0.2c2.2,7.4,1,15.3-3.2,21.7c-11.9,19-34,22.4-50.7,17.4c-20.1-6.1-32.7-22.9-32-42.6
			C37.9,30.5,50.5,13.8,70.6,7.6C87.1,2.5,109,5.8,121,24.5v-3h18.8v15.3l0,0c0.8,0,1.6,0.1,2.4,0.4c6.4,2.3,8.9,13.4,6.5,21
			c-0.2,0.7-0.6,1.4-1.2,1.9c0.1,0.3,0.2,0.5,0.4,0.7c0.4,0.7,0.7,1.4,1,2.2c3.7,9.7,9.6,25.3,10.7,28c2,2.5,4.4,9,4.2,16.9
			c2.4,0,4.8,0,7.2,0.1c7-0.1,13.6,3.4,17.5,9.3c1.1,1.6,0.7,3.8-0.8,4.9c-1.6,1.1-3.8,0.7-4.9-0.8c-0.1-0.1-0.1-0.1-0.1-0.2
			c-2.5-3.9-6.8-6.2-11.5-6.2h-0.3c-19.2-1-38.3,3.2-55.4,12.1c-1.3,0.7-2.6,1.5-3.8,2.5c-3.5,2.8-12.9,9.3-22.9,8.5
			c-29.8-2.4-40.4,1-43,2c-1.3,0.6-2.7,1-4.1,1.2c-4.3,0.8-14.5,4.2-17.2,19.9c-0.8,4.7,0,20,2,41.1c2,17.8,4.6,34,5.3,36.6
			c0.3,1.1,0.1,2.2-0.5,3.2c-0.6,0.9-1.7,1.5-2.8,1.6h-0.3L7.4,244c-0.3,0.7-0.4,1.5-0.4,2.2c-0.1,1.1,0.3,2.3,1,3.1
			c0.9,0.8,2.9,1.1,5.6,0.7h0.5h11.8c4.7-1,9.5-1.6,14.3-1.8c-0.2-2-0.5-4.5-0.8-7.4c-0.9-8.4-2.2-20.9-3.6-33
			c-0.1-0.3-0.2-0.6-0.2-0.9l-0.6-5.3c-1.2-10.3-2.3-19.3-2.8-21.6c-0.9-2.3-5.1-13.8-1.2-22c1.6-3.4,4.6-5.9,8.1-6.9
			c2.9-1,5.6-2.4,8-4.2c8-5.2,17.9-11.8,48.8-4.8c1.9,0.4,3.1,2.3,2.6,4.2c-0.4,1.9-2.3,3.1-4.2,2.6c-28-6.3-35.8-1.1-43.4,3.9
			c-3,2.2-6.3,3.9-9.8,5.1c-1.7,0.4-3.1,1.6-3.9,3.2c-2.3,4.9,0.3,13.9,1.5,16.6l0.2,0.5c0.5,2.2,1.4,9.3,3,22.7l0.4,3.4
			c0.1,0.3,0.2,0.6,0.2,0.9c1.5,12.7,2.9,26.1,3.8,35c0.5,5.2,1,9.4,1.2,11l0.5,3.8l-3.8,0.1c-5,0.2-9.9,0.7-14.8,1.5
			c-0.5,0.3-1.2,0.5-1.8,0.5h-0.7c-1.5,0.3-3,0.8-4.3,1.4c-0.1,3,0.4,4.9,5.9,5.6c12.7,0.6,28,0.5,31.1-0.7l0,0l0.4-0.3
			c0,0,1.6-1.4,0.9-9.8c-0.6-5.9-1.6-11.7-2.9-17.5c-1.1-5.4-1.5-7.3-1.3-8.7v-0.1c1.2-8.6,1.9-15.2,2.1-19.2
			c-0.2-0.5-0.2-1-0.2-1.4c0.1-0.8,0.1-1.5,0.2-2.3c0-0.2,0-0.3-0.1-0.4c-0.4-1-0.2-2.2,0.4-3.1c1.2-10.2,3-16.7,5.3-19.3
			c1.1-1.2,2.8-1.5,4.2-0.8l-1.5-4.6h147.4c-0.1-1.9,1.3-3.6,3.2-3.7c1.2-0.1,2.3,0.4,3,1.3c1.8,2.3,8.8,2.4,16.2,2.4
			c1.5,0,3.1,0,4.8,0h11c2.3-0.6,4.5-1.8,6.1-3.6c1.7-1.7,2.4-4.2,2-6.6c-2.2-11.7-7-18.3-14.4-19.7c-10.9-2-23.2,7.2-24.3,9.1
			c-2.1,4.2-6.8,3.3-9.9,2.8c-0.6-0.1-1.1-0.2-1.7-0.3c-2.1-0.3-3.7-2.1-3.7-4.2V140l0.1-0.5c2.1-7-4.1-22.7-8.5-31
			c-2.6-4.3-4.7-13.5-6.9-31.5c-0.3-2.6-0.6-5.1-0.9-7.6c-1-8.6-2.3-19.1-3.3-22.3c-0.7-0.4-1.4-0.9-2-1.4c-1.9-1.5-2.2-1.5-2.8-1.2
			c-0.8,0.6-1.2,1.5-1.1,2.4l0.3,7.4c0,0.2,0,0.4,0,0.5c0.2,0.3,0.5,0.4,0.8,0.5c5.5,1.9,4.4,6.6,2.7,11.7c-0.1,0.4-0.2,0.8-0.3,1.2
			c-0.7,6.2,0.4,13.8,1.4,21.1c0.4,2.9,0.8,5.8,1.1,8.7v0.3l0.2,6.2c0.1,1.9-1.4,3.5-3.4,3.6c-1.9,0.1-3.5-1.4-3.6-3.3
			c0,0,0,0,0-0.1l-0.2-6.1c-0.3-2.8-0.7-5.6-1.1-8.4c-1.1-7.8-2.2-15.8-1.5-22.9c0.1-0.9,0.3-1.8,0.6-2.7c0.4-1,0.7-2.1,0.9-3.2
			c-2.1-0.9-4.2-2.6-5-7c-0.1-0.7,0-1.4,0.2-2.1l-0.2-5.5c-0.1-3.7,1.8-7.1,5-8.9c4.9-2.7,8.8,0.5,10.5,1.9c0.2,0.2,0.5,0.4,0.7,0.5
			c0.8,0.2,1.5,0.6,2,1.2c2.9-14.7,12.6-27.8,27-35.4C237.3-3,258-2,273.4,9c0.4,0.2,0.8,0.5,1.1,0.8l0,0c4.7,3.4,8.9,7.5,12.3,12.3
			c12.1,16.1,12.8,41,2,58v176.4H270v-62.3H73.1l-3-9.2c-0.1,0.3-0.3,0.5-0.5,0.8c-0.8,0.9-2.6,6-3.9,18.4c0.1,3.1-0.2,9.5-2.2,23.6
			c0,0.9,0.6,3.8,1.2,6.4c3.2,15.9,5.4,29.4-0.4,34.2C63.2,269.6,60,271.5,43.8,271.5z M277,249.5h4.7V89c-1.5,1.5-3.1,3-4.8,4.3
			L277,249.5z M25,240.5L25,240.5z M78.2,187.2h191.5v-4.5h-16.2c-1.5,0.3-3,0.4-4.5,0.3c-2.5-0.2-4.9-0.2-7.2-0.3h-165L78.2,187.2z
			 M265,175.8h5V98.3c-14.8,8.7-33.4,9-50,0.5c-8.6-4.4-15.8-11-21-19.1c1,7.9,3,21.2,5.5,25.2l0.1,0.2c1.3,2.4,12.3,23.8,9.2,35.9
			v10.1c0.8,0.2,1.6,0.3,2.4,0.3c3.2-5,17.9-14.2,30.6-12.4c7.6,1.1,17.4,6.4,21,25.4C268.6,168.4,267.5,172.6,265,175.8z M134.6,47
			c-0.9,5,1.8,11.8,4,17.3c1.2,2.8,2.2,5.7,2.9,8.6c0,0.1,1,5.2,2,17.4c0.7,6.5,2.6,12.8,5.6,18.6c2.5-0.3,5.1-0.6,7.7-0.8
			c0.2-6.6-1.8-11.7-2.6-12.8c-0.8-0.8-1.6-2.6-12-30.1l-0.1-0.2c-0.1-0.2-0.4-0.8-0.6-1.3s-0.4-0.9-0.7-1.3
			c-1.1-2.4-0.6-5.3,1.3-7.2c1.3-5.2-0.9-11.1-2.3-11.6C138.9,43.6,136.1,45.5,134.6,47z M245,7c-7.8,0-15.4,2-22.3,5.7
			c-15.4,8.2-24.7,23.4-24.2,39.7v0.2c-0.5,16.5,8.9,31.8,24.7,40s34,7.1,47.2-3h0.1l0,0c4.3-3.1,8.1-6.9,11.1-11.3l0,0v-0.1
			c10.5-14.4,10.3-37.6-0.5-51.8l0,0l0-0.1c-2.9-4.1-6.5-7.7-10.7-10.7l0,0l-1-0.7h-0.1l0,0C262.2,9.8,253.7,7,245,7z M142.1,65.1
			L142.1,65.1z M180.4,62.1L180.4,62.1z M189.8,40.6L189.8,40.6z"/>
		<path class="st0" d="M269.6,58.3h-27l-1-1.9c-3.3-6.4-3.3-9.6,0.1-15.1l1-1.6h26.7l0.9,0.7c3.7,2.8,4.6,6,4.6,8.1
			c-0.1,3.5-1.7,6.8-4.5,9L269.6,58.3z M247,51.3h19.9c0.7-0.7,1.1-1.7,1.2-2.7c-0.1-0.8-0.4-1.5-1-2h-20.3
			C246,48.1,246,49.2,247,51.3z"/>
		<rect x="191" y="51" class="st0" width="4.5" height="7"/>
		<rect x="145.5" y="51" class="st0" width="32" height="7"/>
		<path class="st0" d="M82.2,58.3l-1-1.2c-3.4-3.7-3.5-9.4-0.2-13.3l1.2-1.4l50.3-0.5l0.1,7l-46.8,0.4c-0.2,0.6-0.2,1.2,0,1.8
			l48.7-0.3v7L82.2,58.3z"/>
		<rect x="143.5" y="42" class="st0" width="34" height="7"/>
		<rect x="189.5" y="42" class="st0" width="6" height="7"/>
		<path class="st0" d="M105.8,183.5c-4.3,0-9.1-0.2-14.5-0.7l0.7-7c33.3,3.1,39.8-4.9,41-7.4c1.7-3.4,4.1-6.5,7-8.9
			c6.8-5.8,17.4-12.2,29-9.6c10,2.2,18.5,10.8,25.1,25.6c0,0,0,0.1,0.1,0.1l10.1,0.5l-0.3,7l-12.5-0.6l-1.4-1c-1-0.8-1.8-1.8-2.4-3
			c-5.7-12.6-12.5-19.9-20.3-21.6c-8.7-2-17.3,3.3-22.9,8.1c-2.2,1.8-3.9,4.1-5.2,6.6C136.5,177.2,128.3,183.5,105.8,183.5z"/>
		<path class="st0" d="M211.1,180.6l-5.8-3.9l3.4-5.1l1.1-0.4c0.8-0.2,4.8-1.3,10.9,2.3l-3.6,6c-1.3-0.8-2.7-1.4-4.3-1.6
			L211.1,180.6z"/>
		<rect x="204" y="175.6" transform="matrix(0.9793 -0.2023 0.2023 0.9793 -31.9627 45.3982)" class="st0" width="4.3" height="7"/>
		<path class="st0" d="M67.9,188.4l-5.8-3.9c0.7-1,1.1-2.1,1.1-3.3c0.1-2.7,1.8-5.1,4.4-6l2.6,6.2l0,0l0,0l0.1,0.2l-0.1,0.1
			c0,0.1,0,0.2,0,0.3C70,184.4,69.2,186.6,67.9,188.4z"/>
		<polygon class="st0" points="141.8,231.5 123,231.5 123,190.8 130,190.8 130,224.5 134.8,224.5 134.8,190.8 141.8,190.8 		"/>
		<polygon class="st0" points="121.5,119.1 121.1,79 121.1,54.8 128.1,54.8 128.1,79 128.5,119 		"/>
		<rect x="131.5" y="65" class="st0" width="7" height="51"/>
		
			<rect x="121.1" y="24.1" transform="matrix(1 -4.537840e-03 4.537840e-03 1 -0.1569 0.5656)" class="st0" width="7" height="21.6"/>
		<path class="st0" d="M190.3,135.8c-1,0-1.9-0.4-2.6-1.1c-1.1-1.2-6.7-8.5-7.3-33c-0.1-1.9,1.5-3.5,3.4-3.6s3.5,1.5,3.6,3.4
			c0.3,9.6,2.1,24.8,5.5,28.5c1.3,1.4,1.2,3.6-0.2,4.9C192,135.4,191.2,135.8,190.3,135.8L190.3,135.8z"/>
	</g>
</g>
</svg>
