<svg xmlns="http://www.w3.org/2000/svg" viewBox="0 0 516.93 391.71"><defs><style>.cls-1{fill:none;stroke:#fff;stroke-linecap:round;stroke-linejoin:round;stroke-width:9px;}</style></defs><g id="Layer_2" data-name="Layer 2"><g id="Layer_1-2" data-name="Layer 1"><path class="cls-1" d="M282.51,344.32c-4.95-29.14-32.62-51.17-45.64-75.6,20,22.6-17.7,12.87-32.55,11.33-17.59-3.25-31.49-15.35-49.46-17.53,13.07,4,26.74,6.29,33.23,19.82,5.25,16.47,34.17,50,34.44,50.49m240-245.44c-8.76-108.91-133.88-111.5-144.16-1.83m146.21,2.6a15.35,15.35,0,0,1-2.05-.77M307.79,209,294,204.31c-23.5-21.15-18.16-20.65-18.16-20.65,1.06-7.24-8.81-29,3.5-18.28l-.06,0,4.4,3.14-.06,0c18.23,10.3,46.46,34.21,66.93,19.61,27.49,19.92,82.11,14,96.25-19.8,20.9-41.31,13.1-49.86,16.65-51.93M153.82,222.43c9.6-5.9,33-.09,45.39-.16,11,9.87,27.18,11.69,37.58,23.14-7.35-14-35.68-11.58-41.48-29M304.61,97.69q-43.37,1.53-86.74,3.08c-5-2-7.47-19.29-6.79-14.48a3.43,3.43,0,0,1,.67-2.61c45-84.33-83.2-106-53.57-7.77C159.27,90.56,179,102.1,179,102.1c-62.69-2.33-37.34,16.48-62-31.56C80.91,16-4.95,54.59,5.35,117.24c.77,61.29,86.8,89,117,32.41m8.09,121c3.84,4.73,10.73,12.9,14.15,14.87m-14-15c-15.37-21.46-14.53-45.67,23.25-48.08m-9.26,63.06a83.79,83.79,0,0,1-14-15M329.39,274c18.9-24.14,12.82-58.19-28.51-67.15m-.31,88.94c2.53,15.31,2.34,31.16,7.75,45.9-4.09-15.13-5.58-31.63-7.47-47.51M279.72,228c-13.29.65-26.09,5.47-37.21,12.57,30.6-24.4,123.09-13.91,83.57,38.21-7.63,4.68-25.6,21.08-28.37,4.65a91.62,91.62,0,0,1,2.86,12.4M179,318.27c-3-3.11-15.2-15.64-16.73-15.31,32.75,23.79,20.48,38.73-10.12,49.54-37.44,28.59,61.15,8.9,72.41,9.73,0,0,21.32-2.46-2.27-29.85m60.25,11.94c1.24,13.48-16.82,22.65-22.81,33.35-7.41,17.69,57.61,8.52,54.54-9.06-1.34-7.69,2.95-17.05-5.86-26.83"/><path class="cls-1" d="M153.23,169.69a2.53,2.53,0,0,1-.28.44c-9.25-4.62-17.08-11.41-25.32-17.79l.07,0c-8.28-8.65-36.76-23.72-27.07-36.91,8.89-.24,17.48-.23,26.41-.77-1.8,4.64-2.46,6.12-5.52,9.5,10,11.26,36.57,18.32,52.81,25.59"/><path class="cls-1" d="M326.07,278.74c40.43-54.05-52.48-61.17-83.56-38.21,11.12-7.1,23.92-11.92,37.21-12.57"/><path class="cls-1" d="M327.34,277.41c-.41.45-.83.89-1.27,1.33"/><path class="cls-1" d="M307.79,209c33.41,8.48,41.44,44.64,19.55,68.45"/><path class="cls-1" d="M158.5,298.89l4,3.77-.29.3-4.05-3.77Z"/><path class="cls-1" d="M259.57,113.05l-4.34-1.87v-.38l51.88-1.53c-.57,5.57,2,9.89,4.91,14,6.35,9.16,8,20.12,9.94,30.86-4.44-2.15-8.31-3.56-12.32-6.12l-4.95-2.78.06,0c-14.92-11.14-27.62-25.39-45.25-32.23Z"/><path class="cls-1" d="M304.7,145.21l5,2.82Z"/><path class="cls-1" d="M309.65,148l3.77,2.22Z"/><path class="cls-1" d="M125.81,114.69c10.31-.33,43.48-1.39,53.21-1.67,0,11.14-1.41-1.11-6.32,47-4.22,40.14,32.38,63.76,31.38,64.77"/><path class="cls-1" d="M465.05,113.32H420C405.77,100.15,420,89,420,89h82.89s19.54,9.3,2.84,24.36Z"/><path class="cls-1" d="M318.73,85.24c-5.13-3.51-11-3.13-14.12,12.45l-1.82.07"/><path class="cls-1" d="M318.73,83.55S307,136.43,350.58,188"/><path class="cls-1" d="M99.41,115.46H79.57s-6.15-4.81,0-10.24l50.76-1.34h5.51"/><line class="cls-1" x1="152.95" y1="170.13" x2="173.27" y2="180.04"/><path class="cls-1" d="M100.64,104.66s4.75-13.15,16.41-9c0,0,7.79,2.1,8.76,8.18"/><line class="cls-1" x1="144.74" y1="286.09" x2="162.24" y2="302.96"/><line class="cls-1" x1="144.33" y1="285.73" x2="142.09" y2="283.59"/><line class="cls-1" x1="149.04" y1="290.23" x2="144.33" y2="285.73"/><line class="cls-1" x1="100.63" y1="115.47" x2="97.39" y2="115.47"/></g></g></svg>
