<?xml version="1.0" encoding="utf-8"?>
<!-- Generator: Adobe Illustrator 26.0.3, SVG Export Plug-In . SVG Version: 6.00 Build 0)  -->
<svg version="1.1" id="Layer_1" xmlns="http://www.w3.org/2000/svg" xmlns:xlink="http://www.w3.org/1999/xlink" x="0px" y="0px"
	 viewBox="0 0 488 488" style="enable-background:new 0 0 488 488;" xml:space="preserve">
<style type="text/css">
	.st0{fill:#FFFFFF;}
</style>
<g>
	<g>
		<path class="st0" d="M451.5,182.5l33.6-32.9c1.7-1.7,2.8-4.3,2.8-6.9l0,0c0-2.7-1-5.2-2.9-7.1l-34-34l34-33.3c1.9-1.9,3-4.4,3-7.1
			s-1-5.2-2.9-7.1L434,2.9C432.1,1,429.6,0,426.9,0s-5.2,1.1-7.1,3l-33.3,34l-34-34c-1.9-1.9-4.5-2.9-7.1-2.9c-2.7,0-5.2,1.1-7.1,3
			l-32.9,33.6L271.9,3.1c-3.9-3.9-10.2-3.9-14.1,0l-51.1,51.1c-1.9,1.9-2.9,4.4-2.9,7.1s1.1,5.2,2.9,7.1l74.5,74.5L143,281.3
			l-74.5-74.5c-1.9-1.9-4.4-2.9-7.1-2.9c-2.7,0-5.2,1.1-7.1,2.9L3.1,257.5c-3.9,3.9-3.9,10.2,0,14.1l33.6,33.6L3,338
			c-1.9,1.9-3,4.4-3,7.1s1,5.2,2.9,7.1l34.2,34.2l-34,33.3c-1.9,1.9-3,4.4-3,7.1s1,5.2,2.9,7.1l51.1,51.1c1.9,1.9,4.4,2.9,7.1,2.9
			c2.7,0,5.2-1.1,7.1-3l33.3-34l33.9,33.9c1.9,1.9,4.4,2.9,7.1,2.9s5.2-1.1,7.1-3l33.1-33.5l33.7,33.7c2,2,4.5,2.9,7.1,2.9
			c2.6,0,5.1-1,7.1-2.9l51.1-51.1c3.9-3.9,3.9-10.2,0-14.1l-74.5-74.5l138.2-138.4l74.5,74.5c2,2,4.5,2.9,7.1,2.9s5.1-1,7.1-2.9
			l51.1-51.1c1.9-1.9,2.9-4.4,2.9-7.1s-1.1-5.2-2.9-7.1L451.5,182.5z M426.9,24.1l36.8,36.8l-26.9,26.4l-18.1-18.1l-18.1-18.1
			L426.9,24.1z M345.4,24.1l118.3,118.3l-26.5,26.1l0,0L319.4,50.6L345.4,24.1z M61.2,463.9l-36.8-36.8l26.9-26.4L87.5,437
			L61.2,463.9z M142.5,463.8l-33.9-33.9l-50.3-50.3l-34.1-34.1l26.6-25.9l58.9,58.9l59,59L142.5,463.8z M260.3,427.1L223.5,464
			l-33.7-33.7L58,298.3l-33.7-33.7l36.9-36.9L260.3,427.1z M193,331.2L156.8,295L295,156.7l36.2,36.2L193,331.2z M426.8,260.3
			L426.8,260.3L344,177.4l-41.9-41.9l-74.5-74.5L264.5,24l33.7,33.7l131.8,132l33.7,33.7L426.8,260.3z"/>
	</g>
</g>
</svg>
